<?xml version="1.0" encoding="UTF-8"?>
<svg xmlns="http://www.w3.org/2000/svg" version="1.1" viewBox="0 0 626.4 626.4" fill="#fff">
  <!-- Generator: Adobe Illustrator 28.7.1, SVG Export Plug-In . SVG Version: 1.2.0 Build 142)  -->
  <g>
    <g id="katman_1">
      <path d="M313.7,240L537.7,15.7c20.4-20.4,53.3-20.4,73.6,0,20.4,20.4,20.4,53.3,0,73.6l-224,224.6,224,224c20.4,20.4,20.4,53.3,0,73.6-20.4,20.4-53.3,20.4-73.6,0l-224-224-224.6,224c-20.4,20.4-53.3,20.4-73.6,0-20.4-20.4-20.4-53.3,0-73.6l224-224L15.6,89.4c-20.5-20.4-20.5-53.3-.1-73.6s53.3-20.4,73.6,0l224.6,224v.2Z"/>
    </g>
  </g>
</svg>