<?xml version="1.0" encoding="UTF-8"?>
<svg xmlns="http://www.w3.org/2000/svg" version="1.1" viewBox="0 0 576 576">
  <!-- Generator: Adobe Illustrator 28.7.1, SVG Export Plug-In . SVG Version: 1.2.0 Build 142)  -->
  <g>
    <g id="Layer_1">
      <path d="M318.9,0h-178.9C88.6,0,46.7,42,46.6,93.4v272.1c0,51.5,42,93.4,93.4,93.4h178.9c51.4,0,93.4-42,93.4-93.4V93.4C412.3,42,370.4,0,318.9,0ZM318.9,415.2h-178.9c-27.4,0-49.7-22.3-49.7-49.7V93.4c0-27.4,22.3-49.7,49.7-49.7h178.9c27.4,0,49.7,22.3,49.7,49.7v272.1c0,27.4-22.3,49.7-49.7,49.7Z"/>
      <path d="M529.4,156.8v325.7c0,51.5-42,93.4-93.4,93.4h-232.5c-12.1,0-21.9-9.8-21.9-21.9s9.8-21.9,21.9-21.9h232.5c27.4,0,49.7-22.3,49.7-49.7V156.8c0-12.1,9.8-21.9,21.9-21.9s21.9,9.8,21.9,21.9Z"/>
    </g>
  </g>
</svg>