<?xml version="1.0" encoding="UTF-8"?>
<svg xmlns="http://www.w3.org/2000/svg" baseProfile="tiny" version="1.2" viewBox="0 0 144 144">
  <!-- Generator: Adobe Illustrator 28.7.1, SVG Export Plug-In . SVG Version: 1.2.0 Build 142)  -->
  <g>
    <g id="Layer_1">
      <path d="M35,3.3h0c17.5,0,31.7,14.2,31.7,31.7v25.2c0,3.6-2.9,6.5-6.5,6.5h-25.2c-17.5,0-31.7-14.2-31.7-31.7h0C3.3,17.5,17.5,3.3,35,3.3Z"/>
      <path d="M109,3.3h0c17.5,0,31.7,14.2,31.7,31.7h0c0,17.5-14.2,31.7-31.7,31.7h-25.2c-3.6,0-6.5-2.9-6.5-6.5v-25.2c0-17.5,14.2-31.7,31.7-31.7Z"/>
      <path d="M35,77.3h25.2c3.6,0,6.5,2.9,6.5,6.5v25.2c0,17.5-14.2,31.7-31.7,31.7h0c-17.5,0-31.7-14.2-31.7-31.7h0c0-17.5,14.2-31.7,31.7-31.7Z"/>
      <path d="M83.8,77.3h25.2c17.5,0,31.7,14.2,31.7,31.7h0c0,17.5-14.2,31.7-31.7,31.7h0c-17.5,0-31.7-14.2-31.7-31.7v-25.2c0-3.6,2.9-6.5,6.5-6.5Z"/>
    </g>
  </g>
</svg>