<?xml version="1.0" encoding="UTF-8"?>
<svg xmlns="http://www.w3.org/2000/svg" baseProfile="tiny" version="1.2" viewBox="0 0 144 144">
  <!-- Generator: Adobe Illustrator 28.7.1, SVG Export Plug-In . SVG Version: 1.2.0 Build 142)  -->
  <g>
    <g id="Layer_1">
      <path d="M144,96.3c0,24.3-19.7,44-44,44s-20.4-3.8-28-10.1c9.7-8.1,15.9-20.2,15.9-33.9s-.2-5-.6-7.4c14.5-5.4,25.4-18.2,28-33.9,16.7,6.2,28.7,22.3,28.7,41.2Z" fill="blue"/>
      <path d="M115.3,55c-2.6,15.7-13.5,28.5-28,33.9-1.8-10.6-7.4-19.9-15.3-26.5,7.6-6.3,17.4-10.1,28-10.1s10.5,1,15.3,2.7Z" fill="#f0f"/>
      <path d="M116,47.7c0,2.5-.2,4.9-.6,7.3-4.8-1.8-9.9-2.7-15.3-2.7-10.6,0-20.4,3.8-28,10.1-7.6-6.3-17.4-10.1-28-10.1s-10.6,1-15.3,2.7c-.4-2.4-.6-4.8-.6-7.3C28,23.4,47.7,3.8,72,3.8s44,19.7,44,44Z" fill="red"/>
      <path d="M87.9,96.3c0,13.6-6.2,25.8-15.9,33.9-9.7-8.1-15.9-20.2-15.9-33.9s.2-5,.6-7.3c4.8,1.8,9.9,2.7,15.3,2.7s10.6-1,15.3-2.8c.4,2.4.6,4.8.6,7.4Z" fill="aqua"/>
      <path d="M87.3,88.9c-4.8,1.8-9.9,2.8-15.3,2.8s-10.5-1-15.3-2.7c1.8-10.6,7.4-20,15.3-26.5,7.9,6.6,13.5,15.9,15.3,26.5Z" fill="#fff"/>
      <path d="M72,62.4c-7.9,6.6-13.6,15.9-15.3,26.5-14.5-5.4-25.4-18.3-28-33.9,4.8-1.8,9.9-2.7,15.3-2.7,10.7,0,20.4,3.8,28,10.1Z" fill="#ff0"/>
      <path d="M72,130.1c-7.6,6.3-17.4,10.1-28,10.1C19.7,140.2,0,120.6,0,96.3s11.9-35,28.6-41.2c2.6,15.7,13.5,28.5,28,33.9-.4,2.4-.6,4.8-.6,7.3,0,13.6,6.2,25.8,15.9,33.9Z" fill="lime"/>
    </g>
  </g>
</svg>