<?xml version="1.0" encoding="UTF-8"?>
<svg xmlns="http://www.w3.org/2000/svg" version="1.1" viewBox="0 0 720 720">
  <defs>
    <style>
      .cls-1 {
        fill: red;
      }
    </style>
  </defs>
  <!-- Generator: Adobe Illustrator 28.7.1, SVG Export Plug-In . SVG Version: 1.2.0 Build 142)  -->
  <g>
    <g id="Layer_1">
      <path class="cls-1" d="M369.9,497.7c0,14.9-2.8,29.2-8,42.3-16.9,43.1-59,73.7-108,73.7s-91.1-30.6-108-73.7c-5.2-13.1-8-27.4-8-42.3s2.8-29.2,8-42.3c16.9-43.1,59-73.8,108-73.8s91.1,30.6,108,73.8c5.2,13.1,8,27.4,8,42.3Z"/>
      <path class="cls-1" d="M582.2,222.3c0,14.9-2.8,29.2-8,42.3-16.9,43.1-59,73.7-108,73.7s-91.1-30.6-108-73.7c-5.2-13.1-8-27.4-8-42.3s2.8-29.2,8-42.3c16.9-43.1,59-73.8,108-73.8s91.1,30.6,108,73.8c5.2,13.1,8,27.4,8,42.3Z"/>
      <g>
        <path d="M124.7,467.6c-2.2,9.7-3.4,19.7-3.4,30.1s1.2,20.4,3.4,30.1H30.1c-16.6,0-30.1-13.5-30.1-30.1s13.5-30.1,30.1-30.1h94.7Z"/>
        <path d="M720,497.7c0,16.6-13.5,30.1-30.1,30.1h-306.9c2.2-9.7,3.4-19.7,3.4-30.1s-1.2-20.4-3.4-30.1h306.9c16.6,0,30.1,13.5,30.1,30.1Z"/>
      </g>
      <g>
        <path d="M337,192.2c-2.2,9.7-3.4,19.7-3.4,30.1s1.2,20.4,3.4,30.1H30.1c-16.6,0-30.1-13.5-30.1-30.1s13.5-30.1,30.1-30.1h306.9Z"/>
        <path d="M720,222.3c0,16.6-13.5,30.1-30.1,30.1h-94.7c2.2-9.7,3.4-19.7,3.4-30.1s-1.2-20.4-3.4-30.1h94.7c16.6,0,30.1,13.5,30.1,30.1Z"/>
      </g>
    </g>
  </g>
</svg>